<?xml version="1.0" encoding="utf-8"?>
<!DOCTYPE svg PUBLIC "-//W3C//DTD SVG 1.1//EN" "http://www.w3.org/Graphics/SVG/1.1/DTD/svg11.dtd">
<svg viewBox="0 0 256 256" enable-background="new 0 0 256 256" x="0" y="0" version="1.1" xmlns="http://www.w3.org/2000/svg" xmlns:xlink="http://www.w3.org/1999/xlink" xml:space="preserve" style="fill-rule:evenodd;clip-rule:evenodd;stroke-linejoin:round;stroke-miterlimit:1.41421;">
	<g id="sfor-bg">
		<g>
			<rect x="0" y="0" width="256" height="256" style="fill:url(#sfor-bg-grad);"/>
		</g>
	</g>
	<g id="sfor-shadow">
		<path d="M255.994,161.483L255.994,199.11L141.972,189.916L255.994,161.483Z" style="fill:url(#sfor-shadow-grad);"/>
	</g>
	<g id="sfor-box">
		<g>
			<path d="M256,0L64,4.30211e-16L64,123.558L142.054,190L256,161.561L256,0Z" style="fill:rgb(40,160,166);"/>
			<clipPath id="sfor-box-clip">
				<path d="M256,0L64,4.30211e-16L64,123.558L142.054,190L256,161.561L256,0Z"/>
			</clipPath>
			<g clip-path="url(#sfor-box-clip)">
				<rect x="250" y="0.0498047" width="6" height="164" style="fill:rgb(167,0,171);"/>
				<rect x="236" y="-1.94289e-16" width="10" height="168" style="fill:rgb(3,0,171);"/>
				<rect x="232" y="-1.11022e-16" width="4" height="168" style="fill:rgb(143,143,143);"/>
				<rect x="224" y="-0.0400391" width="8" height="170" style="fill:rgb(162,75,27);"/>
				<rect x="210" y="-6.93889e-17" width="14" height="174" style="fill:rgb(44,216,75);"/>
				<rect x="198" y="0.00488281" width="12" height="178" style="fill:rgb(255,162,49);"/>
				<rect x="196" y="-2.22045e-16" width="2" height="178" style="fill:rgb(31,31,31);"/>
				<rect x="190" y="1.38778e-17" width="6" height="180" style="fill:rgb(186,243,91);"/>
				<rect x="182" y="0" width="8" height="180" style="fill:rgb(245,18,0);"/>
				<rect x="176" y="-1.38778e-17" width="6" height="182" style="fill:rgb(255,239,190);"/>
				<rect x="166" y="-2.22045e-16" width="10" height="186" style="fill:rgb(144,0,212);"/>
				<rect x="164" y="-3.05311e-16" width="2" height="186" style="fill:rgb(0,233,244);"/>
				<rect x="141.959" y="-1.52656e-16" width="8" height="190" style="fill:rgb(52,52,52);"/>
				<rect x="132" y="2.77556e-17" width="10" height="190" style="fill:rgb(255,111,34);"/>
				<rect x="122" y="-2.22045e-16" width="10" height="184" style="fill:rgb(255,118,240);"/>
				<rect x="118.011" y="-2.22045e-16" width="4" height="174" style="fill:rgb(223,195,0);"/>
				<rect x="110" y="0" width="8" height="172" style="fill:rgb(113,29,0);"/>
				<rect x="100" y="-5.55112e-17" width="10" height="164" style="fill:rgb(153,153,153);"/>
				<rect x="88" y="-2.22045e-16" width="4" height="150" style="fill:rgb(187,0,21);"/>
				<rect x="70" y="0" width="18" height="146" style="fill:rgb(0,145,38);"/>
				<rect x="64" y="-4.44089e-16" width="6" height="130" style="fill:rgb(218,0,198);"/>
			</g>
		</g>
	</g>
	<defs>
		<linearGradient id="sfor-bg-grad" x1="0" y1="0" x2="1" y2="0" gradientUnits="userSpaceOnUse" gradientTransform="matrix(96.4766,187.228,-187.228,96.4766,54.707,5.35156)"><stop offset="0%" style="stop-color:rgb(83,43,43);stop-opacity:1"/><stop offset="100%" style="stop-color:rgb(167,87,87);stop-opacity:1"/></linearGradient>
		<linearGradient id="sfor-shadow-grad" x1="0" y1="0" x2="1" y2="0" gradientUnits="userSpaceOnUse" gradientTransform="matrix(7.20117,32.4978,-32.4978,7.20117,214.983,161.66)"><stop offset="0%" style="stop-color:rgb(83,43,43);stop-opacity:1"/><stop offset="100%" style="stop-color:rgb(167,87,87);stop-opacity:1"/></linearGradient>
	</defs>
</svg>